<svg xmlns="http://www.w3.org/2000/svg" viewBox="74 74 50 50">
  <path fill="#fff" d="M0 0h200v200H0V0Z"/>
  <path fill="#76bb25" d="m45.44 107.49 8.55-.02c.34 0 .51.17.52.51l.03 1.2c.01.32-.15.48-.47.48l-11.55-.02c-.31 0-.49-.15-.53-.46-.14-.99-.01-1.91.78-2.6 3.32-2.92 7.65-7.12 8.79-11.37.55-2.01-.24-4.65-2.64-4.98a6.7 6.7 0 0 0-4.68 1.01.72.72 0 0 1-1.04-.29l-.11-.24c-.29-.6-.15-1.06.43-1.38a10.14 10.14 0 0 1 6.24-1.15c4.42.54 4.86 6.08 3.26 9.14-1.67 3.19-4.28 6.36-7.83 9.51-.49.44-.41.66.25.66Zm25.47-1.27a6.1 6.1 0 0 1-8.53 3.05c-1.81-.99-2.96-2.64-3.43-4.95-.91-4.43-1.48-14.83 4.76-16.09 10.23-2.07 9.2 13.07 7.2 17.99Zm99.65-15.64c-2.13-.53-3.93-.43-5.42.29-2.51 1.2-1.8 4.11.37 5.29 2.74 1.48 8.49 3.69 8.43 7.5-.11 7.13-7.69 7.31-12.51 4.81a.84.84 0 0 1-.47-.69c-.07-.67.04-1.25.33-1.75.08-.14.19-.17.33-.09 2.92 1.72 5.52 2.18 7.79 1.38 2.96-1.04 2.85-4.77.09-6.15a99.7 99.7 0 0 1-5.3-2.83c-4.39-2.54-3.89-8.83 1.18-9.97a14.3 14.3 0 0 1 7.04.31c.39.11.59.38.59.79v3.78c0 .5-.25.75-.76.75h-.39c-.59-.01-.89-.31-.89-.9v-2.01c0-.27-.14-.44-.41-.51ZM32.47 103h-7.01c-1.83 0-2.21-.74-1.12-2.22l8.86-12.03c.16-.21.39-.36.65-.4.41-.07.8-.03 1.16.13.23.1.34.27.34.52v11.43c0 .39.19.58.58.58h2.57c.5-.01.75.24.75.74v.49c0 .5-.25.75-.74.75l-2.58.01c-.38 0-.57.19-.57.57v5.2c0 .51-.25.79-.75.86l-.62.09c-.56.08-.84-.16-.84-.73l.04-5.27c.01-.48-.23-.72-.72-.72Zm70.03-4.36a.8.8 0 0 0 .49.16c.25 0 .47.07.68.2a5.18 5.18 0 0 1 2.46 4.82c-.23 6.16-7.11 6.56-11.84 5.77-.44-.07-.66-.32-.66-.77l.02-19.8c0-.32.16-.5.48-.55 2.7-.37 8.25-.95 10.21 1.48 1.95 2.41 1.54 6.67-1.75 7.98-.45.18-.48.42-.09.71Zm14.38-.47 4.84-9.22c.29-.55.73-.77 1.33-.67l.65.11c.5.08.63.34.39.79a527.66 527.66 0 0 1-5.77 10.66 7.22 7.22 0 0 0-.89 3.94 76 76 0 0 1 .07 5.44c-.01.25-.14.39-.4.4l-1.3.06c-.41.02-.62-.17-.63-.58-.1-2.72.61-6.59-.73-9-2.2-3.98-4.22-7.7-6.05-11.16-.2-.39-.08-.58.36-.59l1.45-.01c.4 0 .69.18.88.53l5.01 9.3c.27.5.53.5.79 0Zm21.25-7.59-3.22.03a.43.43 0 0 0-.43.43l.01 18.17c0 .23-.19.42-.42.43l-1.53.01a.43.43 0 0 1-.44-.43l.01-18.19a.43.43 0 0 0-.43-.43h-3.22a.44.44 0 0 0-.43.42l-.03 2.47a.44.44 0 0 1-.41.42l-1.14.06a.43.43 0 0 1-.45-.43l-.04-4.75c0-.24.19-.43.43-.43h13.92c.23 0 .43.2.43.43l-.06 4.76c0 .25-.2.44-.45.43l-1.3-.07a.41.41 0 0 1-.4-.43l.03-2.46a.43.43 0 0 0-.43-.44Zm9.1 9.61v6.83c0 .22.18.4.4.4l8.62-.05c.21 0 .39.18.4.39l.03 1.49a.4.4 0 0 1-.4.41l-11.03-.01a.4.4 0 0 1-.4-.4V88.76c0-.22.18-.4.4-.4h10.84c.22 0 .4.18.4.4l.01 1.47a.4.4 0 0 1-.4.4l-8.47-.04a.4.4 0 0 0-.4.4l-.01 6.16c0 .22.18.4.4.4l7.72-.01a.4.4 0 0 1 .4.38l.07 1.44a.4.4 0 0 1-.4.42l-7.78.01a.4.4 0 0 0-.4.4Zm-64.94 4.21c-2.17-.01-3.92-1.9-3.91-4.22.01-2.33 1.77-4.21 3.93-4.2 2.17.01 3.92 1.9 3.91 4.22-.01 2.33-1.77 4.21-3.93 4.2Z"/>
  <path fill="#fff" d="M61.39 93.28c1.15-4.27 6.25-4.35 7.68-.23a.9.9 0 0 1-.24 1.02l-7.42 7.17c-.39.38-.61.3-.65-.24-.21-2.82 0-5.39.63-7.72Zm34.6-2.57c0-.26.21-.47.47-.47h2.27c2.37 0 4.3 1.58 4.3 3.53v.36c0 1.95-1.93 3.53-4.3 3.53h-2.27a.47.47 0 0 1-.47-.47v-6.48Zm-69.04 9.82 5.72-7.75c.18-.24.56-.11.56.19l-.07 7.72c0 .17-.14.31-.31.31l-5.65.03a.31.31 0 0 1-.25-.5Zm40.62 6.67c-2.39 1.86-5.35.19-6.08-2.51a.99.99 0 0 1 .29-1.04l7.51-7.33c.14-.13.37-.05.39.14.32 2.89.53 8.69-2.11 10.74ZM96 100.24c0-.23.19-.42.42-.42l2.65.02c2.56.01 4.62 1.69 4.61 3.74v.4c-.01 2.05-2.09 3.71-4.65 3.7l-2.65-.02a.42.42 0 0 1-.42-.42l.04-7Z"/>
</svg>
